<svg width="20" height="20" viewBox="0 0 20 20" fill="none" xmlns="http://www.w3.org/2000/svg">
<path d="M18.7626 5.01562C17.6212 5.01562 16.5681 4.6375 15.7224 3.99961C14.7524 3.26836 14.0556 2.1957 13.8095 0.959375C13.7485 0.653906 13.7157 0.338672 13.7126 0.015625H10.452V8.925L10.4481 13.8051C10.4481 15.1098 9.59853 16.216 8.42079 16.6051C8.079 16.718 7.70986 16.7715 7.32548 16.7504C6.83486 16.7234 6.37509 16.5754 5.97548 16.3363C5.12509 15.8277 4.54853 14.9051 4.5329 13.8496C4.50829 12.2 5.84189 10.8551 7.49032 10.8551C7.81571 10.8551 8.12822 10.9082 8.42079 11.0047V8.56953V7.69414C8.1122 7.64844 7.79814 7.62461 7.48056 7.62461C5.67626 7.62461 3.98876 8.37461 2.78251 9.72578C1.87079 10.7469 1.32392 12.0496 1.23954 13.4156C1.129 15.2102 1.78564 16.916 3.05907 18.1746C3.24618 18.3594 3.44267 18.5309 3.64814 18.6891C4.73993 19.5293 6.0747 19.9848 7.48056 19.9848C7.79814 19.9848 8.1122 19.9613 8.42079 19.9156C9.73407 19.7211 10.9458 19.1199 11.902 18.1746C13.077 17.0133 13.7263 15.4715 13.7333 13.8305L13.7165 6.54297C14.277 6.97539 14.8899 7.3332 15.5477 7.61094C16.5708 8.04258 17.6556 8.26133 18.772 8.26094V5.89336V5.01484C18.7727 5.01562 18.7634 5.01562 18.7626 5.01562Z" fill="white"/>
</svg>
